<mxfile host="app.diagrams.net" agent="Mozilla/5.0 (Windows NT 10.0; Win64; x64) AppleWebKit/537.36 (KHTML, like Gecko) Chrome/131.0.0.0 Safari/537.36" version="25.0.3">
  <diagram name="Page-1" id="bci4x09Kv59lLXyxROZ7">
    <mxGraphModel dx="1434" dy="738" grid="1" gridSize="10" guides="1" tooltips="1" connect="1" arrows="1" fold="1" page="1" pageScale="1" pageWidth="850" pageHeight="1100" math="0" shadow="0">
      <root>
        <mxCell id="0" />
        <mxCell id="1" parent="0" />
        <mxCell id="NUh00WMstrIGhPTZJr8A-9" style="edgeStyle=orthogonalEdgeStyle;rounded=0;orthogonalLoop=1;jettySize=auto;html=1;endArrow=classic;endFill=0;startArrow=classic;startFill=1;shape=link;fillColor=#f5f5f5;strokeColor=#666666;" edge="1" parent="1" source="NUh00WMstrIGhPTZJr8A-2" target="NUh00WMstrIGhPTZJr8A-3">
          <mxGeometry relative="1" as="geometry" />
        </mxCell>
        <mxCell id="NUh00WMstrIGhPTZJr8A-10" value="1. Send Events" style="edgeLabel;html=1;align=center;verticalAlign=middle;resizable=0;points=[];" vertex="1" connectable="0" parent="NUh00WMstrIGhPTZJr8A-9">
          <mxGeometry x="-0.2768" y="-2" relative="1" as="geometry">
            <mxPoint as="offset" />
          </mxGeometry>
        </mxCell>
        <mxCell id="NUh00WMstrIGhPTZJr8A-2" value="Windows 10 Client&lt;div&gt;Wazuh Agent&lt;/div&gt;" style="fontColor=#0066CC;verticalAlign=top;verticalLabelPosition=bottom;labelPosition=center;align=center;html=1;outlineConnect=0;fillColor=#CCCCCC;strokeColor=#6881B3;gradientColor=none;gradientDirection=north;strokeWidth=2;shape=mxgraph.networks.pc;" vertex="1" parent="1">
          <mxGeometry x="375" y="460" width="100" height="70" as="geometry" />
        </mxCell>
        <mxCell id="NUh00WMstrIGhPTZJr8A-11" style="edgeStyle=orthogonalEdgeStyle;rounded=0;orthogonalLoop=1;jettySize=auto;html=1;fillColor=#f5f5f5;strokeColor=#666666;shape=link;" edge="1" parent="1" source="NUh00WMstrIGhPTZJr8A-3" target="NUh00WMstrIGhPTZJr8A-4">
          <mxGeometry relative="1" as="geometry" />
        </mxCell>
        <mxCell id="NUh00WMstrIGhPTZJr8A-3" value="Router" style="outlineConnect=0;dashed=0;verticalLabelPosition=bottom;verticalAlign=top;align=center;html=1;shape=mxgraph.aws3.router;fillColor=#F58534;gradientColor=none;" vertex="1" parent="1">
          <mxGeometry x="391" y="300" width="69" height="72" as="geometry" />
        </mxCell>
        <mxCell id="NUh00WMstrIGhPTZJr8A-12" style="edgeStyle=orthogonalEdgeStyle;rounded=0;orthogonalLoop=1;jettySize=auto;html=1;fillColor=#f5f5f5;strokeColor=#666666;shape=link;" edge="1" parent="1" source="NUh00WMstrIGhPTZJr8A-4">
          <mxGeometry relative="1" as="geometry">
            <mxPoint x="250" y="201.85000000000002" as="targetPoint" />
          </mxGeometry>
        </mxCell>
        <mxCell id="NUh00WMstrIGhPTZJr8A-13" value="2. Receives Event&amp;nbsp;" style="edgeLabel;html=1;align=center;verticalAlign=middle;resizable=0;points=[];" vertex="1" connectable="0" parent="NUh00WMstrIGhPTZJr8A-12">
          <mxGeometry x="0.0574" y="1" relative="1" as="geometry">
            <mxPoint as="offset" />
          </mxGeometry>
        </mxCell>
        <mxCell id="NUh00WMstrIGhPTZJr8A-4" value="Internet" style="image;aspect=fixed;perimeter=ellipsePerimeter;html=1;align=center;shadow=0;dashed=0;spacingTop=3;image=img/lib/active_directory/internet_cloud.svg;" vertex="1" parent="1">
          <mxGeometry x="380" y="173.7" width="89.37" height="56.3" as="geometry" />
        </mxCell>
        <mxCell id="NUh00WMstrIGhPTZJr8A-14" style="rounded=0;orthogonalLoop=1;jettySize=auto;html=1;entryX=0;entryY=0.25;entryDx=0;entryDy=0;shape=link;fillColor=#dae8fc;strokeColor=#6c8ebf;" edge="1" parent="1" source="NUh00WMstrIGhPTZJr8A-5" target="NUh00WMstrIGhPTZJr8A-7">
          <mxGeometry relative="1" as="geometry" />
        </mxCell>
        <mxCell id="NUh00WMstrIGhPTZJr8A-15" value="Send Alerts" style="edgeLabel;html=1;align=center;verticalAlign=middle;resizable=0;points=[];" vertex="1" connectable="0" parent="NUh00WMstrIGhPTZJr8A-14">
          <mxGeometry x="-0.1709" relative="1" as="geometry">
            <mxPoint x="1" as="offset" />
          </mxGeometry>
        </mxCell>
        <mxCell id="NUh00WMstrIGhPTZJr8A-5" value="Wazuh Manager" style="image;aspect=fixed;perimeter=ellipsePerimeter;html=1;align=center;shadow=0;dashed=0;spacingTop=3;image=img/lib/active_directory/internet_cloud.svg;" vertex="1" parent="1">
          <mxGeometry x="160" y="173.7" width="89.37" height="56.3" as="geometry" />
        </mxCell>
        <mxCell id="NUh00WMstrIGhPTZJr8A-6" value="TheHive" style="image;aspect=fixed;perimeter=ellipsePerimeter;html=1;align=center;shadow=0;dashed=0;spacingTop=3;image=img/lib/active_directory/internet_cloud.svg;" vertex="1" parent="1">
          <mxGeometry x="600" y="173.7" width="89.37" height="56.3" as="geometry" />
        </mxCell>
        <mxCell id="NUh00WMstrIGhPTZJr8A-7" value="Shuffle" style="image;aspect=fixed;perimeter=ellipsePerimeter;html=1;align=center;shadow=0;dashed=0;spacingTop=3;image=img/lib/active_directory/internet_cloud.svg;" vertex="1" parent="1">
          <mxGeometry x="380" y="30" width="89.37" height="56.3" as="geometry" />
        </mxCell>
        <mxCell id="NUh00WMstrIGhPTZJr8A-8" value="SOC Analyst" style="fontColor=#0066CC;verticalAlign=top;verticalLabelPosition=bottom;labelPosition=center;align=center;html=1;outlineConnect=0;fillColor=#CCCCCC;strokeColor=#6881B3;gradientColor=none;gradientDirection=north;strokeWidth=2;shape=mxgraph.networks.pc;" vertex="1" parent="1">
          <mxGeometry x="660" y="350" width="100" height="70" as="geometry" />
        </mxCell>
      </root>
    </mxGraphModel>
  </diagram>
</mxfile>
